<?xml version="1.0" encoding="UTF-8"?><svg xmlns="http://www.w3.org/2000/svg" viewBox="0 0 622.47 593.19"><defs><style>.d{stroke-width:10.9px;}.d,.e{fill:none;stroke:#000;stroke-miterlimit:10;}.e{stroke-width:10.4px;}</style></defs><g id="a"/><g id="b"><g id="c"><g><path d="M606.43,249.29c-33.81-28.38-69.45-45.94-113.82-48.81-6.42-.2-9.73-1.38-11.99-7.06-9.11-22.88-19.54-45.32-30.35-67.46-2.08-4.48-3.12-6.71-5.2-11.14v12.61c0,25.37,0,50.75,0,76.12-29.99,11.68-60.12,26.37-90.97,35.45-24.62,6.99-52.22-2.38-54.94-29.73-2.12-21.34,2.62-41.76,9.91-62,17.76-49.32,42.91-99.2,78.13-139.93,1.93-2.23,7.23-3.89,10.98-3.96,35.11-.67,70.33-.33,105.47-.42,6.71-.02,9.74,1.54,11.97,5.86,31.15,60.29,56.09,123.75,76.36,188.02,3.21,10.19,6.21,20.58,9.17,30.92,2.11,8.46,3.16,12.76,5.26,21.53ZM392.72,10.76c-1.4,.6-2.54,.85-3.15,1.41-1.58,1.43-3.2,3-4.34,4.62-17.67,25.17-18.94,52.23-2.29,79.28,9.56,15.54,31.55,16.17,47.72,16.41,4.05,.06,7.93,.02,13.11-.67-16.36-34.07-33.52-67.57-51.05-101.04Z"/><path class="e" d="M615.53,585.69c-37.93-1.27-75.87-2.19-113.82-2.38-6.42-.02-9.73-2.07-11.99-11.02-9.2-36.35-19.51-72.47-30.35-108.38-2.08-7.24-3.12-10.84-5.2-17.96v19.65c0,38.57,0,77.15,0,115.72-27.76,7.8-63.07,7.6-90.97,.52-26.39-6.93-51.96-30.35-54.94-56.79-2.31-20.5,2.76-40.24,9.91-60.05,21.72-60.17,49.53-120.15,78.13-178.32,1.92-3.91,7.27-8.6,10.98-10.09,33.41-13.34,69.61-18.68,105.47-14.25,6.6,.82,9.74,4.37,11.97,12.04,25.39,87.56,49.52,175.75,76.36,262.64,3.03,9.8,6.04,19.66,9.17,29.45,2.11,7.83,3.16,11.68,5.26,19.21Zm-213.71-296.28c-1.4,1.37-2.54,2.14-3.15,3.16-1.58,2.61-3.14,5.34-4.34,8.04-15.76,35.49-20.3,72.36-2.29,108.78,8.76,17.71,28.32,29.47,47.72,31.47,4.1,.42,7.93,.87,13.11,.25-15.31-51.1-30.42-102.44-51.05-151.71Z"/><path class="d" d="M5.45,577.76v-17.8s.41-6.09,.41-8.99c.08-59.95,.05-119.92,.04-179.87,0-16.14,0-32.28,0-48.42,2.81,2.46,4.49,3.69,6.17,5.25,49.63,46.24,105.87,61.71,173.28,47.13,15.19-3.29,31.23-6.95,45.83-8.33,19.58-1.84,39.33,6.81,39.85,30.91,.64,29.43-14.29,58.51-37.85,76.31-20.43,13.66-38.91,19.45-63.53,18.85-17.27-.75-33.94-2.98-50.95-6.01,8.35,11.31,20.68,20.2,34.63,22.42,21.88,3.48,43.47,3.77,63.15-4.37,17.93-7.41,36.06-18.82,53.6-29.31-.18,35.27-.37,70.55-.56,105.82-71.74,14.41-128.29-31.38-158.62-92.48,.41,31.32,.84,62.64,1.3,93.96-35.65-.82-71.21-2.65-106.77-5.09Zm105.48-192.17c0,27.93,1.24,57.19,0,83.8-.57,12.3,10.24,14.78,20.25,12.67,6.15-1.3,13.66-4.54,16.52-8.57,17.1-24.07,16.88-47.86,1.2-73.68-7.55-12.42-24.71-14.32-37.97-14.21Z"/><path d="M1.55,264.32c0-7.33,0-11,0-18.33,0,0,.41-5.96,.41-8.95,.08-61.8,.05-123.6,.04-185.4,0-16.59,0-33.19,0-49.78,2.81-.41,4.49-.9,6.17-.9,57.74,0,117.61-2.5,173.28,.6,15.72,.88,30.86,5.3,45.83,11.08,23.51,9.07,39.33,33.39,39.85,58.74,.67,32.17-12.44,65.27-37.85,85.8-19.8,14.9-38.53,21.63-63.53,19.81-17.4-1.71-33.98-5.26-50.95-9.42,6.61,15.34,18.69,31.14,34.63,35.57,21.7,6.04,43.87,4.74,63.15-4.86,17.64-8.78,35.89-23.02,53.6-34.92-.18,42.09-.37,84.18-.56,126.27-32.99,23.65-68.38,29.9-98.88-.29-30.96-30.65-46.72-77.46-59.75-117.92,.42,51.27,.85,102.53,1.3,153.8-42.2-6.46-76.92-31.92-106.77-60.9ZM107.03,9.54c0,43.61,1.5,88.79,0,130.83-.47,13.25,5.21,24.58,20.25,18.98,6.04-2.25,13.57-7.52,16.52-13.9,17.49-37.84,16.52-76.4,1.2-115.62-6.11-15.63-21.19-24.97-37.97-20.29Z"/></g></g></g></svg>