<?xml version="1.0" encoding="UTF-8"?><svg xmlns="http://www.w3.org/2000/svg" viewBox="0 0 622.47 593.03"><defs><style>.d{stroke-width:10.4px;}.d,.e,.f{stroke:#fff;stroke-miterlimit:10;}.d,.f{fill:none;}.e{fill:#fff;}.f{stroke-width:10.9px;}</style></defs><g id="a"/><g id="b"><g id="c"><g><path class="e" d="M606.43,249.4c-33.81-28.4-69.44-45.97-113.82-48.84-6.42-.2-9.73-1.38-11.99-7.06-9.11-22.86-19.54-45.29-30.35-67.42-2.08-4.48-3.12-6.71-5.2-11.13v88.7c-29.99,11.69-60.12,26.38-90.97,35.47-24.59,6.99-52.22-2.32-54.94-29.67-2.12-21.32,2.63-41.73,9.91-61.95,17.77-49.33,42.93-99.18,78.13-139.94,1.93-2.23,7.23-3.9,10.98-3.97,35.11-.73,70.33-.36,105.47-.44,6.71-.01,9.74,1.54,11.97,5.86,31.14,60.28,56.09,123.72,76.36,187.97,3.21,10.19,6.21,20.57,9.17,30.9,2.11,8.45,3.16,12.76,5.27,21.52ZM392.72,10.95c-1.4,.6-2.54,.85-3.15,1.41-1.58,1.44-3.2,3-4.34,4.63-17.66,25.17-18.95,52.21-2.29,79.25,9.57,15.53,31.55,16.14,47.72,16.37,4.05,.06,7.93,.01,13.11-.68-16.36-34.05-33.51-67.53-51.05-100.98Z"/><path class="d" d="M615.53,585.53c-37.93-1.27-75.87-2.19-113.82-2.38-6.42-.02-9.73-2.07-11.99-11.01-9.19-36.32-19.51-72.41-30.35-108.29-2.08-7.24-3.12-10.83-5.2-17.94v19.64c0,38.54,0,77.08,0,115.63-27.76,7.8-63.06,7.59-90.97,.52-26.38-6.92-51.95-30.31-54.94-56.75-2.31-20.48,2.76-40.21,9.91-60,21.73-60.13,49.53-120.07,78.13-178.2,1.92-3.91,7.27-8.6,10.98-10.08,33.41-13.33,69.61-18.66,105.47-14.22,6.6,.82,9.74,4.36,11.97,12.04,25.38,87.49,49.52,175.62,76.36,262.43,3.03,9.79,6.04,19.64,9.17,29.43,2.11,7.83,3.16,11.67,5.26,19.19Zm-213.71-296.06c-1.4,1.37-2.54,2.14-3.15,3.16-1.58,2.61-3.14,5.33-4.34,8.03-15.75,35.46-20.3,72.31-2.29,108.71,8.76,17.7,28.33,29.45,47.72,31.45,4.1,.42,7.93,.87,13.11,.25-15.32-51.07-30.42-102.37-51.05-151.6Z"/><path class="f" d="M5.45,577.62v-17.78s.41-6.09,.41-8.98c.08-59.9,.05-119.81,.04-179.72,0-16.13,0-32.25,0-48.38,2.81,2.46,4.49,3.69,6.17,5.25,49.63,46.21,105.88,61.68,173.28,47.12,15.19-3.28,31.23-6.95,45.83-8.32,19.56-1.85,39.33,6.77,39.85,30.87,.64,29.41-14.3,58.46-37.85,76.25-20.43,13.65-38.91,19.44-63.53,18.83-17.27-.75-33.94-2.98-50.95-6.01,8.36,11.3,20.68,20.18,34.63,22.4,21.88,3.48,43.47,3.77,63.15-4.36,17.93-7.41,36.06-18.81,53.6-29.29-.18,35.24-.37,70.48-.56,105.73-71.71,14.39-128.27-31.32-158.62-92.39,.41,31.29,.84,62.58,1.3,93.88-35.65-.82-71.2-2.64-106.77-5.09Zm105.48-191.99c0,27.91,1.24,57.13,0,83.72-.57,12.3,10.25,14.77,20.25,12.66,6.15-1.3,13.66-4.54,16.52-8.56,17.1-24.04,16.88-47.81,1.2-73.61-7.55-12.41-24.72-14.31-37.97-14.2Z"/><path class="e" d="M1.55,264.44v-18.31s.41-5.96,.41-8.94c.08-61.74,.05-123.5,.04-185.24,0-16.58,0-33.16,0-49.74,2.81-.41,4.49-.89,6.17-.89,57.74,.12,117.61-2.33,173.28,.76,15.71,.87,30.86,5.28,45.83,11.03,23.5,9.02,39.33,33.28,39.85,58.62,.67,32.16-12.45,65.24-37.85,85.76-19.79,14.9-38.53,21.64-63.53,19.83-17.4-1.7-33.98-5.25-50.95-9.41,6.61,15.33,18.69,31.11,34.63,35.54,21.7,6.03,43.87,4.72,63.15-4.88,17.64-8.78,35.89-23.02,53.6-34.94-.18,42.05-.37,84.09-.56,126.14-32.97,23.63-68.38,29.92-98.88-.23-30.95-30.6-46.72-77.37-59.75-117.79,.42,51.21,.85,102.43,1.3,153.64-42.21-6.46-76.92-31.95-106.77-60.94ZM107.03,10.02c0,43.56,1.5,88.7,0,130.69-.47,13.25,5.22,24.56,20.25,18.96,6.04-2.24,13.57-7.51,16.52-13.89,17.49-37.79,16.52-76.31,1.2-115.49-6.11-15.62-21.19-24.94-37.97-20.28Z"/></g></g></g></svg>