<?xml version="1.0" encoding="UTF-8"?><svg xmlns="http://www.w3.org/2000/svg" viewBox="0 0 1226.11 276.17"><defs><style>.d,.e{stroke:#000;stroke-miterlimit:10;stroke-width:10.35px;}.e{fill:none;}</style></defs><g id="a"/><g id="b"><g id="c"><g><path class="d" d="M589.32,265.54c-37.07-.29-74.15-.65-111.22-.64-6.24,.01-11.24-2.15-17.57-10.56-19.35-25.76-28.02-57.03-17.25-88.13,1.83-5.19,2.88-7.74,5.02-12.78-4.28,5.44-6.39,8.19-10.27,13.84-20.11,32.14-23.19,60.82-7.29,95.75-26.9,8.23-61.55,6.8-88.41-.93-29.11-8.56-55.82-35.77-47.36-67.77,5.76-21.79,22.96-39.59,38.87-54,35.87-32.49,95.49-72.1,68.66-124.23-1.62-3.14,.27-5.68,4-5.7,34.38-.19,68.91,.18,103.29-.05,6.47-.04,13.02,2.8,22.03,9.94,31.94,28.01,56.44,57.59,38.55,100.56-14.06,33.77-31.95,58.35-19.48,94.05,3.58,10.24,10.5,20.18,17.76,28.84,6.22,7.97,13.39,14.87,20.68,21.82ZM414.23,21.52c-.57,.78-1.43,1.05-1.25,1.81,.45,1.95,1.04,4.01,1.69,6.11,9.17,29.84,8.63,58.29,3.97,89.42-2.17,14.49,4.85,28.3,20.4,30.31,3.07,.4,6.14,1.05,10.85,.84,8.49-19.29,18.88-39.29,16.97-60.95-2.69-30.48-30.26-50.57-52.63-67.54Z"/><path class="d" d="M5.19,267.11c.02-7.32,.04-10.97,.09-18.28,0,0,.46-6.34,.5-9.31,.77-60.95,2.74-122.09,1.51-182.98-.33-16.31-.81-32.66-1.38-48.99,2.93-.42,4.64-.89,6.39-.9,59.67-.05,119.87-.88,179.03,.67,18.84,.49,37.74,4.5,55.88,9.06,26.83,6.74,64.56,22.34,75.21,50.95,11.31,30.38-28.49,50.49-51.49,58.15-23.59,6.71-46.16,9.03-70.6,8.58-18.39-.65-36.73-2.77-55.08-4.12,5.77,12.59,16.93,21.84,30.41,24.23,21.8,3.86,43.1,2.98,64.73-.87,19.56-3.48,39.61-8.5,59.42-12.74-23.72,40.77-42.81,78.18-34.41,126.49-35.9,9.12-74.18-8.39-95.52-37.58-19.67-26.91-26.39-63.82-34.56-95.58-10.72,44-24.21,87.04-24.34,132.7-35.27,.26-70.54,.12-105.81,.52ZM118.56,13.23c16.76,30.84,30.35,63.55,22.35,97.11-3.57,14.96,9.16,15.92,20.62,12.21,7.29-2.36,17.36-6.4,22.1-11.27,11.98-12.28,21.5-22.32,17.69-40.91-3.67-17.89-19.92-31.48-32.71-42.24-13.13-11.04-32.29-18.61-50.05-14.89Z"/><path class="d" d="M1218.79,267.93c-39.62-.1-79.24-.31-118.86-.28-6.64,.01-11.28-1.56-18.03-8.2-16.01-15.77-31.43-32.26-45.13-50.11-5.86-7.63-15.43-17.71-16.74-27.76-1.14-5.27-1.59-7.88-2.32-13.1-1.77,5.72-2.58,8.58-3.95,14.33-4.01,29.84,18.74,61.53,35.89,83.38-29.45,7.05-65.37,4.99-94.75-1.31-33.07-7.15-84.38-24.99-97.45-58.28-8.05-20.52,8.19-36.38,22.26-49.64,44.98-42.36,98.68-80.95,124.31-139.35,1.54-3.52,6.26-6.36,9.92-6.44,34.41-.73,68.97-.76,103.39-1.46,6.61-.13,9.73,2.45,11.72,9.28,9.33,34.97,13.28,70.95,24.32,105.46,11.42,35.68,27.94,67.23,45.62,99.71,4.56,8.39,8.87,17.11,12.99,25.82,2.89,7.16,4.27,10.75,6.81,17.94ZM1009.75,23.49c-1.3,.9-2.38,1.23-2.94,2.1-1.44,2.21-2.85,4.55-4.09,6.98-15.72,30.88-36.5,66.38-36.62,101.42-.07,19.4,20.19,29.06,36.83,30.53,4.35,.38,8.51,.82,14.45,.39-4.66-47.56,5.57-94.92-7.62-141.43Z"/><path class="e" d="M610.84,263.11c-8.03-8.99-11.11-13.28-15.84-21.54,0,0-3.58-7.17-4.68-10.29-23.97-68.44,70.5-101.83,69.98-167.24-.17-20.96-14.96-39.86-28.33-55.94,2.26-.53,3.36-1.13,5.01-1.13,56.85,.1,115.7-2.12,170.61,.94,16.87,.94,33.39,5.37,49.54,11.27,23.86,8.71,44.66,33.3,34.98,60.17-10.9,30.29-41.19,52.36-71.3,61.07-20.87,5.3-40.71,7.92-62.26,5.77-13.27-1.45-26.3-4.32-39.44-6.6-3.66,9.14,2.36,21.34,11.8,23.83,17.88,4.72,37.72,5.03,56.26,2.59,19.02-2.51,38.58-6.73,57.83-10.38-10.26,16.71-19.18,31.75-14.82,51.97,5.44,25.23,25.22,43.01,43.83,59.19-42.49,10.23-98.07-13.19-132.67-36.28-33.44-22.32-48.08-49.99-31.62-87.92-13.36,16.18-28.94,33.32-30.39,55.27-1.85,28.05,17.6,48.35,36.35,66.61-34.95-.27-69.9-1.07-104.85-1.35ZM739.72,15.68c20.47,39.44,14.87,73.46-12.11,105.78-8.37,10.03-7.29,16.22,7.43,12.2,6.46-1.76,16.21-5.11,22.31-9.54,32.51-23.6,51.14-54.41,27.05-89.61-8.74-12.77-27.98-23.83-44.69-18.84Z"/></g></g></g></svg>