<svg width="48" height="48" viewBox="0 0 48 48" fill="none" xmlns="http://www.w3.org/2000/svg">
<path d="M14.25 38C11.6375 38 9.52375 40.1375 9.52375 42.75C9.52375 45.3625 11.6375 47.5 14.25 47.5C16.8625 47.5 19 45.3625 19 42.75C19 40.1375 16.8625 38 14.25 38ZM0 0V4.75H4.75L13.3 22.7763L10.0938 28.595C9.71375 29.26 9.5 30.0438 9.5 30.875C9.5 33.4875 11.6375 35.625 14.25 35.625H42.75V30.875H15.2475C14.915 30.875 14.6538 30.6138 14.6538 30.2812L14.725 29.9963L16.8625 26.125H34.5563C36.3375 26.125 37.905 25.1513 38.7125 23.6788L47.215 8.265C47.405 7.9325 47.5 7.52875 47.5 7.125C47.5 5.81875 46.4313 4.75 45.125 4.75H9.99875L7.76625 0H0ZM38 38C35.3875 38 33.2738 40.1375 33.2738 42.75C33.2738 45.3625 35.3875 47.5 38 47.5C40.6125 47.5 42.75 45.3625 42.75 42.75C42.75 40.1375 40.6125 38 38 38Z" fill="black"/>
</svg>
