<?xml version="1.0" encoding="UTF-8"?><svg id="Layer_1" xmlns="http://www.w3.org/2000/svg" viewBox="0 0 1027.49 231.76"><defs><style>.cls-1{fill:#231f20;}</style></defs><path class="cls-1" d="M58.15,160.96l316.75-33.34,314.94-33.15,177.38-18.67c3.14-.33,3.26-5.21,0-5-98,6.23-196.06,11.54-294.16,15.93-98.1,4.38-196.24,7.84-294.41,10.36-55.14,1.42-110.29,2.54-165.45,3.38-3.24,.05-3.2,4.82,0,5l334.46,18.97,334.46,18.97,187.23,10.62v-5l-327.51-.25-325.69-.25-183.77-.14c-3.22,0-3.22,5,0,5l327.51,.25,325.69,.25,183.77,.14c3.24,0,3.19-4.82,0-5l-334.46-18.97-334.46-18.97-187.23-10.62v5c98.19-1.49,196.36-3.89,294.51-7.23,98.14-3.34,196.25-7.61,294.32-12.8,55.08-2.92,110.15-6.13,165.2-9.63v-5l-316.75,33.34-314.94,33.15-177.38,18.67c-3.17,.33-3.2,5.34,0,5h0Z"/></svg>