<svg id="Layer_1" data-name="Layer 1" xmlns="http://www.w3.org/2000/svg" viewBox="0 0 1221.59 417.94"><defs><style>.cls-1{fill:#231f20;}</style></defs><path class="cls-1" d="M1122.11,54.11l-426-12.56q-213-6.28-426-12.57c-48-1.37-98.74-.85-143.65,18.23-45.17,19.2-76,59-81.88,107.9C38.62,205,56.19,257.64,88,296c36,43.44,88.53,69.22,141.55,85.47,56.29,17.25,115.35,27,173.9,32.33a1001.41,1001.41,0,0,0,181.27,0,1027,1027,0,0,0,345.71-94.27q41.7-19.71,81.48-43.16c23.66-13.95,45.9-30.37,64.5-50.7,17.14-18.75,32-41.43,36.27-66.89a84.09,84.09,0,0,0-17.47-67c-15-18.42-37-29.6-59-37.29-25.16-8.77-51.67-13.9-77.7-19.37A1694.13,1694.13,0,0,0,789.82,8.27c-113.3-12.06-228.38-11.79-341,6.52C337.21,32.93,228.34,69.47,131,127.46c-24.07,14.34-48.69,29.46-70.32,47.35-18.2,15.05-36.95,39.05-25.5,63.7,5.07,10.91,14.93,18.56,24.73,25,13.08,8.66,26.64,16.66,40.38,24.23a728.78,728.78,0,0,0,83.43,39.12c58.59,23.23,119.74,39.46,181.54,51.52a1639.51,1639.51,0,0,0,201.11,26.26c136.69,9.44,275.26,2.51,410.06-22.38,59.89-11.06,120.05-27.76,171.36-61.68,42.6-28.18,80.52-73.86,72.79-128.14-7.38-51.82-52.24-90.37-96.94-112-57.18-27.67-120.36-39.08-183.15-45-139.12-13-280-10.15-419.38-2.31C450.82,37.16,380.62,42.71,310.49,49q-52.31,4.68-104.57,9.81c-25.75,2.5-51.54,4.73-76.92,10-42.27,8.7-87.71,25.63-112.33,63.37C-12,176-1.13,232,29.62,271.66c35.56,45.9,93,62.55,148.24,69.86,66.44,8.8,134,11.59,201,11.91,137.28.65,274.35-12.92,409.67-35.5,66.05-11,131.72-24.24,197-39,3.14-.71,1.81-5.54-1.33-4.82-131,29.68-263.64,53-397.49,65.11C455.13,351.12,321.49,353.1,190.06,338,134,331.6,74.06,317.65,36.4,272.18,3.67,232.66-7.88,174.74,23.51,131c26.37-36.75,73.74-51.55,116.25-59.2,27.41-4.93,55.29-6.92,83-9.58q50.47-4.86,101-9.37C459.85,40.81,596.39,31.74,733.11,32c67,.12,134.11,2.06,200.83,7.93,62.24,5.47,125.12,16,182.19,42.51,45.6,21.18,93.19,59.23,99.77,112.48,7.13,57.75-38.48,102.92-84.2,129.84-52.2,30.74-111.93,45.15-171.1,55.3a1646.72,1646.72,0,0,1-200.47,21.72C627.48,408,493.75,398.72,363.43,373c-59.31-11.71-118-27.32-174.38-49.33A721.2,721.2,0,0,1,103.76,284c-13.31-7.32-26.4-15.06-39.14-23.32-11.12-7.22-22.85-15.77-26.73-29.12C29.37,202.23,62,179.31,82.24,165a802.94,802.94,0,0,1,69.92-44A849.25,849.25,0,0,1,303.9,54.82c104.73-34.17,215-49,325-49.78,111.57-.8,223,12.54,332.07,35.69,25.3,5.37,51.06,10.41,75.47,19.12,22.44,8,45,20.08,58.77,40.17,14.9,21.7,17.15,48.75,8.53,73.3-9,25.53-27.3,47.15-47.21,65-20.83,18.64-44.68,32.79-69,46.32Q948.2,306.5,907,324.84a1020.51,1020.51,0,0,1-168.21,57.91,1008.63,1008.63,0,0,1-347.7,24.88c-57.09-5.94-114.86-16-169.51-33.89-52.21-17.12-104.3-44.8-137.08-90.32-29.21-40.57-44-95.21-32-144.5A124.13,124.13,0,0,1,89.15,76.55c17.84-16.33,40.18-26.74,63.35-33,50.34-13.69,103.58-9.94,155.1-8.42l204.54,6L923.63,53.26l198.48,5.85c3.22.1,3.22-4.9,0-5Z"/></svg>