<?xml version="1.0" encoding="UTF-8"?><svg id="Layer_1" xmlns="http://www.w3.org/2000/svg" viewBox="0 0 1221.59 417.94"><defs><style>.cls-1{fill:#fff;}</style></defs><path class="cls-1" d="M1055.26,74.07l-370.2-10.92c-123.4-3.64-246.8-7.38-370.2-10.92-41.76-1.2-85.91-.73-124.99,15.89-39.39,16.75-66.2,51.4-71.32,94.05-5.2,43.38,10.17,89.28,37.85,122.68,31.32,37.79,77.03,60.22,123.15,74.36,48.94,15,100.3,23.46,151.2,28.11,52.37,4.78,105.16,4.74,157.52,0,104.02-9.42,206.16-37.31,300.58-81.96,24.15-11.42,47.79-23.94,70.8-37.51,20.58-12.13,39.93-26.42,56.11-44.11,14.93-16.33,27.87-36.09,31.61-58.27,3.5-20.79-1.92-42.2-15.27-58.58-13.08-16.05-32.23-25.79-51.46-32.49-21.87-7.62-44.9-12.08-67.52-16.83-48.45-10.18-97.39-18.08-146.63-23.32-98.49-10.48-198.52-10.24-296.42,5.67-97,15.77-191.64,47.54-276.25,97.95-20.94,12.48-42.36,25.63-61.18,41.2-15.94,13.19-32.24,34.19-22.2,55.75,4.44,9.53,13.04,16.22,21.6,21.88,11.37,7.52,23.16,14.47,35.09,21.05,23.42,12.91,47.72,24.18,72.57,34.03,50.91,20.18,104.06,34.29,157.75,44.77,57.71,11.27,116.2,18.78,174.85,22.83,118.81,8.2,239.26,2.18,356.43-19.46,52.07-9.61,104.38-24.14,148.98-53.64,37.15-24.57,70.16-64.4,63.41-111.71-6.44-45.12-45.47-78.69-84.39-97.52-49.75-24.06-104.7-34-159.32-39.12-120.9-11.33-243.35-8.83-364.43-2.01-61.09,3.44-122.09,8.26-183.03,13.72-30.3,2.71-60.59,5.59-90.87,8.53-22.41,2.18-44.85,4.12-66.93,8.66-36.82,7.58-76.37,22.35-97.81,55.22-24.95,38.25-15.52,86.99,11.26,121.58,30.96,39.99,80.98,54.5,129.1,60.87,57.73,7.65,116.47,10.07,174.66,10.35,119.32,.57,238.46-11.23,356.08-30.86,57.4-9.58,114.46-21.06,171.21-33.92,3.14-.71,1.81-5.53-1.33-4.82-113.82,25.79-229.04,46.02-345.33,56.57-114.34,10.37-230.47,12.09-344.68-1.01-48.62-5.57-100.63-17.68-133.3-57.13-28.36-34.24-38.34-84.4-11.15-122.32,22.85-31.86,63.98-44.66,100.82-51.29,23.79-4.28,47.98-6.01,72.02-8.32,29.24-2.82,58.49-5.55,87.75-8.13,118.29-10.43,236.95-18.31,355.76-18.09,58.18,.11,116.54,1.79,174.52,6.89,54.02,4.75,108.61,13.89,158.15,36.9,39.51,18.35,80.82,51.31,86.54,97.46,6.2,50.06-33.38,89.22-73.01,112.55-45.34,26.69-97.22,39.21-148.61,48.02-57.57,9.87-115.78,16.11-174.12,18.86-115.24,5.44-231.42-2.65-344.64-25.01-51.54-10.18-102.55-23.75-151.54-42.87-25.37-9.9-50.16-21.32-74.03-34.44-11.57-6.36-22.94-13.08-34.01-20.26-9.59-6.22-19.73-13.59-23.07-25.11-7.35-25.3,20.88-45.12,38.38-57.43,19.58-13.78,39.87-26.54,60.76-38.25,41.89-23.47,86.14-42.59,131.78-57.49,90.98-29.69,186.8-42.55,282.32-43.25,96.93-.7,193.74,10.89,288.48,31,21.98,4.67,44.37,9.05,65.58,16.62,19.41,6.93,38.93,17.37,50.87,34.75,12.91,18.79,14.84,42.18,7.38,63.44-7.77,22.13-23.69,40.87-40.94,56.31-18.08,16.18-38.79,28.45-59.9,40.2-22.78,12.68-46.12,24.34-69.94,34.95-47.1,20.99-96.06,37.81-146.1,50.29-98.46,24.56-201.1,32.11-302.05,21.6-49.59-5.16-99.76-13.87-147.22-29.44-45.28-14.85-90.49-38.85-118.92-78.33-25.33-35.19-38.21-82.56-27.81-125.31,5.06-20.78,15.98-39.6,31.77-54.06,15.46-14.15,34.82-23.16,54.9-28.63,43.72-11.89,89.95-8.63,134.7-7.31l177.74,5.24,357.58,10.55,172.48,5.09c3.22,.09,3.22-4.91,0-5h0Z"/></svg>