<svg id="Layer_1" data-name="Layer 1" xmlns="http://www.w3.org/2000/svg" viewBox="0 0 588.79 566.31"><defs><style>.cls-1{fill:#231f20;}</style></defs><path class="cls-1" d="M183.73,541.73a672,672,0,0,1-63.68-109.82,680.13,680.13,0,0,1-42-119.65A670.06,670.06,0,0,1,59.13,186.93c-2.23-41-2-85.46,25.18-119,22.15-27.29,56.11-43.69,90.62-48.2,40.07-5.24,80.64,6.17,115.94,24.71,36.32,19.07,68.69,45.67,96.77,75.42a432.42,432.42,0,0,1,69.92,98.9c19.77,38.46,37.14,82.48,32.06,126.53-4.49,38.9-27.55,72.67-54.84,99.55-29.91,29.47-65.77,53.4-102.84,72.87a490.92,490.92,0,0,1-59.76,26.5c-19.52,7.13-39.71,12.91-60.37,15.56-19.89,2.56-40.4,2.27-59.78-3.28a108.49,108.49,0,0,1-48.15-29.16c-25.7-26.55-39.11-62.65-50.56-97.07-14.71-44.25-28-89.43-33-135.94-4.54-41.82-2.13-84.69,11.29-124.78a206.77,206.77,0,0,1,27.1-54A200.82,200.82,0,0,1,98.62,74C129,50.11,165.17,34.33,202,23.48,243.9,11.17,288.3,3.31,332,5.29a225.61,225.61,0,0,1,64.59,12.07A221.68,221.68,0,0,1,445.93,42.2c31.28,20.85,57.52,48.92,77.87,80.42,22.59,34.94,39.9,75.51,42.23,117.47,2,36.9-9.41,72.28-31.64,101.65-20.82,27.5-49.19,48.66-79,65.59-31.28,17.78-64.88,31.33-99.09,42.32-37.8,12.15-77.4,21.26-117.32,20.64-38.93-.59-77.18-11.92-106.84-37.89-15.38-13.47-28.08-29.68-39.3-46.71A625.55,625.55,0,0,1,60,328.77q-15.72-30.36-28.66-62.06C22.72,245.53,14.24,223.84,9,201.55c-4.95-20.85-6-42.67,1.68-63,5.7-15,15.73-27.86,27.65-38.41,25.62-22.71,59-35.68,91.4-45.34,44.41-13.24,90.06-23.93,136.22-28.64,43.32-4.43,87.47-3.36,129.91,7C433,42.21,468.82,58,499.16,81.48A211.8,211.8,0,0,1,566.89,171c14,35.35,18.76,73.81,16.25,111.62a306.24,306.24,0,0,1-29.35,111.25c-17.44,36.57-41.73,70.18-73.13,96-27.51,22.62-60.65,37.93-95.31,45.76a253.2,253.2,0,0,1-106.11,1.13c-33.65-6.89-65.69-20.81-93.11-41.57-2.57-1.94-5.06,2.4-2.52,4.32,29,22,63.36,36.43,99.1,43a259.35,259.35,0,0,0,108.34-3.09c35.43-8.68,68.86-25.18,96.62-48.93,31.56-27,55.87-61.91,73-99.58a311.56,311.56,0,0,0,27.78-113.54c1.86-38.45-3.88-77.52-18.94-113.06-15.17-35.81-39.89-66.4-71-89.58C467,51.34,430.08,35.74,392,27.11,348.05,17.16,302.46,16.79,257.87,22A665.63,665.63,0,0,0,187,34.57c-22.06,5.07-44.09,10.77-65.68,17.58C88.59,62.47,55,76.57,30.12,100.91c-11.66,11.42-20.93,25.26-25.9,40.87-6.78,21.3-4.59,43.91.93,65.22,5.87,22.67,14.58,44.77,23.57,66.35s18.8,42.5,29.64,63c10.33,19.61,21.33,39,33.88,57.31,11.75,17.13,25.16,33.36,41.4,46.44,31,25,70,35.23,109.37,35.18,40.67-.05,81-9.71,119.4-22.39,34.73-11.47,68.89-25.55,100.47-44.14,30.1-17.71,58.32-39.91,78.76-68.52a157.48,157.48,0,0,0,29-106.11c-3.79-42.3-21.67-83-45.08-118-21.15-31.66-48.17-59.7-80.26-80.35a224.62,224.62,0,0,0-50.94-24.48C372.89,4.22,350.35.8,327.82.13c-23.55-.71-47.11,1.56-70.3,5.49A488.92,488.92,0,0,0,196,20.07C158.56,31.55,122.16,48.26,91.69,73.2c-31.56,25.82-54,60.21-66.25,99-13,41.25-14.76,85.24-9.49,128,5.79,46.9,19.31,92.5,34.46,137.13,11.86,34.93,26.41,71.42,53.71,97.32a112.88,112.88,0,0,0,50.09,27.66c19.95,5,40.81,4.91,61.07,2,21.26-3,41.92-9.14,62-16.66A502.89,502.89,0,0,0,338,520.17a497.78,497.78,0,0,0,56.81-35.54c16.51-11.95,32.36-24.86,46.66-39.41,27.49-27.94,49.61-62.7,53.41-102.48,4.27-44.67-13.67-89.24-33.86-128.14A436.65,436.65,0,0,0,388.93,114C360,83.81,326.59,56.82,289.16,38c-36-18.14-76.92-28.65-117.3-22.79-35,5.08-69.56,22.17-91.83,50.17C67.65,80.9,60,99.2,56.41,118.72c-4,22.14-3.51,44.86-2.33,67.24a676.19,676.19,0,0,0,19.29,128.1A687.32,687.32,0,0,0,116.54,436.2a672.21,672.21,0,0,0,62.87,108.05c1.85,2.6,6.19.1,4.32-2.52Z"/></svg>